{"title":"Humpty Sharma Ki Dulhania (2014) - 2CD - DVDRip - x264 - AC3 - E","uid":10831705,"size":1578182790,"categoryP":"video","categoryS":"movies_dvdr","magnet":"?xt=urn:btih:f646521efa17c1bb6d9a34a12299649d71f4937a&amp;dn=Humpty+Sharma+Ki+Dulhania+%282014%29+-+2CD+-+DVDRip+-+x264+-+AC3+-+E&amp;tr=udp%3A%2F%2Ftracker.openbittorrent.com%3A80&amp;tr=udp%3A%2F%2Fopen.demonii.com%3A1337&amp;tr=udp%3A%2F%2Ftracker.coppersurfer.tk%3A6969&amp;tr=udp%3A%2F%2Fexodus.desync.com%3A6969","seeders":2,"leechers":1,"uploader":"inovai","files":4,"time":1408629948,"description":"Humpty Sharma Ki Dulhania (2014) - 2CD - DVDRip - x264 - AC3 - ESubs - Mafiaking - TeamTNT\n\nGENRE: Comedy | Drama | Romance\n\nScreenshots:\n &lt;a href=&quot;\nhttp://img.primetimeshow.in/share.php?id=DE64_53F5DCFB&quot; rel=&quot;nofollow&quot; target=&quot;_NEW&quot;&gt;\nhttp://img.primetimeshow.in/share.php?id=DE64_53F5DCFB&lt;/a&gt;\n &lt;a href=&quot;\nhttp://img.primetimeshow.in/share.php?id=F651_53F5E036&quot; rel=&quot;nofollow&quot; target=&quot;_NEW&quot;&gt;\nhttp://img.primetimeshow.in/share.php?id=F651_53F5E036&lt;/a&gt;\n &lt;a href=&quot;\nhttp://img.primetimeshow.in/share.php?id=ECB8_53F5E036&quot; rel=&quot;nofollow&quot; target=&quot;_NEW&quot;&gt;\nhttp://img.primetimeshow.in/share.php?id=ECB8_53F5E036&lt;/a&gt;\n &lt;a href=&quot;\nhttp://img.primetimeshow.in/share.php?id=DE3F_53F5E036&quot; rel=&quot;nofollow&quot; target=&quot;_NEW&quot;&gt;\nhttp://img.primetimeshow.in/share.php?id=DE3F_53F5E036&lt;/a&gt;\n &lt;a href=&quot;\nhttp://img.primetimeshow.in/share.php?id=ED94_53F5E036&quot; rel=&quot;nofollow&quot; target=&quot;_NEW&quot;&gt;\nhttp://img.primetimeshow.in/share.php?id=ED94_53F5E036&lt;/a&gt;\n &lt;a href=&quot;\nhttp://img.primetimeshow.in/share.php?id=CA1E_53F5E036&quot; rel=&quot;nofollow&quot; target=&quot;_NEW&quot;&gt;\nhttp://img.primetimeshow.in/share.php?id=CA1E_53F5E036&lt;/a&gt;\n\nGeneral Info:\nUnique ID : 195439400886587689039146988009705214023 (0x9308426B301C583BBEBF78C0B0949047)\nComplete name : Humpty Sharma Ki Dulhania (2014) - 2CD - DVDRip - x264 - AC3 - ESubs - Mafiaking - TeamTNT.mkv\nFormat : Matroska\nFormat version : Version 4 / Version 2\nFile size : 1.46 GiB\nDuration : 2h 11mn\nOverall bit rate : 1 592 Kbps\nMovie name : Humpty Sharma Ki Dulhania (2014) - 2CD - DVDRip - x264 - AC3 - ESubs - Mafiaking - TeamTNT\nEncoded date : UTC 2014-08-20 16:48:04\nWriting application : mkvmerge v7.0.0 ('Where We Going') 32bit built on Jun 9 2014 15:08:34\nWriting library : libebml v1.3.0 + libmatroska v1.4.1\n\n\nVideo\nID : 1\nFormat : AVC\nFormat/Info : Advanced Video Codec\nFormat profile : &lt;a class=&quot;__cf_email__&quot; href=&quot;/cdn-cgi/l/email-protection&quot; data-cfemail=&quot;0941606e6149453a2739&quot;&gt;[email&amp;#160;protected]&lt;/a&gt;&lt;script cf-hash='f9e31' type=&quot;text/javascript&quot;&gt;\n/* &lt;![CDATA[ */!function(){try{var t=&quot;currentScript&quot;in document?document.currentScript:function(){for(var t=document.getElementsByTagName(&quot;script&quot;),e=t.length;e--;)if(t[e].getAttribute(&quot;cf-hash&quot;))return t[e]}();if(t&amp;&amp;t.previousSibling){var e,r,n,i,c=t.previousSibling,a=c.getAttribute(&quot;data-cfemail&quot;);if(a){for(e=&quot;&quot;,r=parseInt(a.substr(0,2),16),n=2;a.length-n;n+=2)i=parseInt(a.substr(n,2),16)^r,e+=String.fromCharCode(i);e=document.createTextNode(e),c.parentNode.replaceChild(e,c)}}}catch(u){}}();/* ]]&gt; */&lt;/script&gt;\nFormat settings, CABAC : Yes\nFormat settings, ReFrames : 4 frames\nCodec ID : V_MPEG4/ISO/AVC\nDuration : 2h 11mn\nBit rate : 1 399 Kbps\nWidth : 720 pixels\nHeight : 304 pixels\nDisplay aspect ratio : 2.35:1\nFrame rate mode : Constant\nFrame rate : 23.976 fps\nColor space : YUV\nChroma subsampling : 4:2:0\nBit depth : 8 bits\nScan type : Progressive\nBits/(Pixel*Frame) : 0.267\nStream size : 1.26 GiB (86%)\nTitle : Mafiaking\nWriting library : x264 core 142 r2431 ac76440\nLanguage : Hindi\nDefault : Yes\nForced : No\n\n\nAudio\nID : 2\nFormat : AC-3\nFormat/Info : Audio Coding 3\nMode extension : CM (complete main)\nFormat settings, Endianness : Big\nCodec ID : A_AC3\nDuration : 2h 11mn\nBit rate mode : Constant\nBit rate : 192 Kbps\nChannel(s) : 2 channels\nChannel positions : Front: L R\nSampling rate : 48.0 KHz\nBit depth : 16 bits\nCompression mode : Lossy\nStream size : 181 MiB (12%)\nTitle : Mafiaking\nLanguage : Hindi\nDefault : Yes\nForced : No\n\n\n\nSAMPLE WITH IN TORRENT\n\nThanks to TEAMTNT for source and Mafiaking for encoding!","torrent":{"xt":"urn:btih:f646521efa17c1bb6d9a34a12299649d71f4937a","amp;dn":"Humpty+Sharma+Ki+Dulhania+%282014%29+-+2CD+-+DVDRip+-+x264+-+AC3+-+E","amp;tr":["udp%3A%2F%2Ftracker.openbittorrent.com%3A80","udp%3A%2F%2Fopen.demonii.com%3A1337","udp%3A%2F%2Ftracker.coppersurfer.tk%3A6969","udp%3A%2F%2Fexodus.desync.com%3A6969"],"infoHash":"f646521efa17c1bb6d9a34a12299649d71f4937a","infoHashBuffer":{"type":"Buffer","data":[246,70,82,30,250,23,193,187,109,154,52,161,34,153,100,157,113,244,147,122]},"announce":[],"urlList":[]}}